<?xml version="1.0" encoding="utf-8" ?>
<svg baseProfile="full" height="383" version="1.1" width="425" xmlns="http://www.w3.org/2000/svg" xmlns:ev="http://www.w3.org/2001/xml-events" xmlns:xlink="http://www.w3.org/1999/xlink"><defs /><g id="group_0"><path d="M 176,19 L 175,20 L 171,20 L 170,21 L 168,21 L 167,22 L 166,22 L 165,23 L 164,23 L 163,24 L 162,24 L 160,26 L 159,26 L 155,30 L 154,30 L 152,32 L 152,33 L 147,38 L 147,39 L 144,42 L 144,43 L 142,45 L 142,46 L 140,48 L 139,48 L 138,47 L 138,46 L 136,44 L 136,43 L 132,39 L 132,38 L 128,34 L 127,34 L 125,32 L 124,32 L 123,31 L 122,31 L 121,30 L 119,30 L 118,29 L 112,29 L 111,30 L 109,30 L 108,31 L 107,31 L 106,32 L 105,32 L 104,33 L 102,33 L 101,34 L 99,34 L 98,35 L 95,35 L 94,36 L 92,36 L 91,37 L 88,37 L 87,38 L 85,38 L 84,39 L 82,39 L 81,40 L 79,40 L 78,41 L 76,41 L 75,42 L 74,42 L 73,43 L 72,43 L 71,44 L 70,44 L 68,46 L 67,46 L 64,49 L 63,49 L 57,55 L 57,56 L 55,58 L 55,59 L 53,61 L 53,62 L 52,63 L 52,64 L 51,65 L 51,66 L 50,67 L 50,68 L 49,69 L 49,70 L 48,71 L 48,73 L 47,74 L 47,75 L 46,76 L 46,79 L 45,80 L 45,82 L 44,83 L 44,86 L 43,87 L 43,91 L 42,92 L 42,97 L 41,98 L 41,107 L 42,108 L 42,115 L 43,116 L 43,121 L 44,122 L 44,125 L 45,126 L 45,129 L 46,130 L 46,132 L 47,133 L 47,135 L 48,136 L 48,138 L 49,139 L 49,141 L 50,142 L 50,143 L 51,144 L 51,145 L 52,146 L 52,147 L 53,148 L 53,149 L 54,150 L 54,151 L 55,152 L 55,153 L 57,155 L 57,156 L 59,158 L 59,159 L 65,165 L 66,165 L 68,167 L 69,167 L 71,169 L 72,169 L 75,172 L 76,172 L 78,174 L 79,174 L 81,176 L 82,176 L 84,178 L 85,178 L 86,179 L 87,179 L 88,180 L 89,180 L 90,181 L 91,181 L 92,182 L 93,182 L 94,183 L 95,183 L 96,184 L 98,184 L 99,185 L 100,185 L 101,186 L 103,186 L 104,187 L 106,187 L 107,188 L 109,188 L 110,189 L 111,189 L 112,190 L 113,190 L 114,191 L 116,191 L 117,192 L 118,192 L 119,193 L 120,193 L 122,195 L 123,195 L 124,196 L 125,196 L 127,198 L 128,198 L 129,199 L 130,199 L 132,201 L 133,201 L 134,202 L 135,202 L 137,204 L 138,204 L 139,205 L 140,205 L 141,206 L 142,206 L 144,208 L 145,208 L 146,209 L 147,209 L 149,211 L 150,211 L 151,212 L 152,212 L 154,214 L 155,214 L 157,216 L 158,216 L 161,219 L 162,219 L 165,222 L 166,222 L 178,234 L 178,235 L 179,236 L 179,237 L 181,239 L 181,241 L 182,242 L 182,244 L 183,245 L 183,247 L 182,248 L 182,249 L 181,250 L 180,250 L 178,248 L 177,248 L 174,245 L 173,245 L 170,242 L 169,242 L 167,240 L 166,240 L 164,238 L 163,238 L 161,236 L 160,236 L 158,234 L 157,234 L 156,233 L 155,233 L 153,231 L 152,231 L 151,230 L 150,230 L 149,229 L 148,229 L 146,227 L 145,227 L 144,226 L 143,226 L 142,225 L 141,225 L 140,224 L 138,224 L 137,223 L 136,223 L 135,222 L 134,222 L 133,221 L 131,221 L 130,220 L 128,220 L 127,219 L 124,219 L 123,218 L 119,218 L 118,217 L 112,217 L 111,216 L 103,216 L 102,217 L 99,217 L 98,218 L 96,218 L 95,219 L 95,229 L 96,230 L 96,233 L 97,234 L 97,236 L 98,237 L 98,238 L 99,239 L 99,240 L 100,241 L 100,242 L 102,244 L 102,245 L 104,247 L 104,248 L 109,253 L 110,253 L 113,256 L 114,256 L 116,258 L 117,258 L 118,259 L 119,259 L 120,260 L 121,260 L 122,261 L 123,261 L 124,262 L 125,262 L 126,263 L 128,263 L 129,264 L 131,264 L 132,265 L 135,265 L 136,266 L 139,266 L 140,267 L 158,267 L 159,266 L 161,266 L 162,265 L 163,265 L 164,264 L 166,264 L 167,263 L 168,263 L 169,262 L 171,262 L 172,261 L 173,261 L 174,260 L 176,260 L 177,259 L 178,260 L 178,264 L 179,265 L 179,268 L 180,269 L 180,270 L 181,271 L 181,272 L 182,273 L 182,274 L 186,278 L 186,279 L 192,285 L 192,286 L 195,289 L 195,290 L 196,291 L 196,292 L 197,293 L 197,294 L 198,295 L 198,296 L 199,297 L 199,298 L 200,299 L 200,301 L 201,302 L 201,305 L 202,306 L 202,311 L 203,312 L 203,324 L 202,325 L 202,331 L 226,331 L 226,313 L 227,312 L 227,305 L 228,304 L 228,300 L 229,299 L 229,297 L 230,296 L 230,294 L 231,293 L 231,291 L 232,290 L 232,289 L 233,288 L 233,287 L 236,284 L 236,283 L 238,281 L 239,281 L 241,279 L 242,279 L 246,275 L 246,274 L 247,273 L 247,272 L 248,271 L 248,269 L 249,268 L 249,258 L 250,257 L 251,257 L 252,258 L 253,258 L 254,259 L 255,259 L 256,260 L 258,260 L 259,261 L 260,261 L 261,262 L 263,262 L 264,263 L 265,263 L 266,264 L 268,264 L 269,265 L 286,265 L 287,264 L 291,264 L 292,263 L 295,263 L 296,262 L 298,262 L 299,261 L 300,261 L 301,260 L 302,260 L 303,259 L 305,259 L 306,258 L 307,258 L 308,257 L 309,257 L 311,255 L 312,255 L 314,253 L 315,253 L 325,243 L 325,242 L 326,241 L 326,240 L 328,238 L 328,237 L 329,236 L 329,234 L 330,233 L 330,231 L 331,230 L 331,227 L 332,226 L 332,217 L 331,216 L 329,216 L 328,215 L 325,215 L 324,214 L 315,214 L 314,215 L 308,215 L 307,216 L 303,216 L 302,217 L 300,217 L 299,218 L 297,218 L 296,219 L 294,219 L 293,220 L 291,220 L 290,221 L 289,221 L 288,222 L 287,222 L 286,223 L 285,223 L 284,224 L 283,224 L 282,225 L 281,225 L 280,226 L 279,226 L 278,227 L 277,227 L 275,229 L 274,229 L 273,230 L 272,230 L 270,232 L 269,232 L 268,233 L 267,233 L 265,235 L 264,235 L 262,237 L 261,237 L 259,239 L 258,239 L 255,242 L 254,242 L 251,245 L 250,245 L 247,248 L 245,246 L 245,244 L 246,243 L 246,241 L 247,240 L 247,238 L 248,237 L 248,236 L 250,234 L 250,233 L 253,230 L 253,229 L 258,224 L 259,224 L 264,219 L 265,219 L 268,216 L 269,216 L 271,214 L 272,214 L 274,212 L 275,212 L 276,211 L 277,211 L 279,209 L 280,209 L 282,207 L 283,207 L 284,206 L 285,206 L 286,205 L 287,205 L 289,203 L 290,203 L 291,202 L 292,202 L 294,200 L 295,200 L 296,199 L 297,199 L 299,197 L 300,197 L 301,196 L 302,196 L 304,194 L 305,194 L 306,193 L 307,193 L 308,192 L 309,192 L 310,191 L 311,191 L 312,190 L 313,190 L 314,189 L 315,189 L 316,188 L 317,188 L 318,187 L 320,187 L 321,186 L 323,186 L 324,185 L 326,185 L 327,184 L 328,184 L 329,183 L 331,183 L 332,182 L 333,182 L 334,181 L 335,181 L 336,180 L 338,180 L 339,179 L 340,179 L 342,177 L 343,177 L 344,176 L 345,176 L 347,174 L 348,174 L 350,172 L 351,172 L 353,170 L 354,170 L 357,167 L 358,167 L 360,165 L 361,165 L 363,163 L 364,163 L 368,159 L 368,158 L 371,155 L 371,154 L 373,152 L 373,151 L 374,150 L 374,149 L 375,148 L 375,147 L 376,146 L 376,145 L 377,144 L 377,143 L 378,142 L 378,140 L 379,139 L 379,138 L 380,137 L 380,135 L 381,134 L 381,132 L 382,131 L 382,128 L 383,127 L 383,125 L 384,124 L 384,121 L 385,120 L 385,116 L 386,115 L 386,109 L 387,108 L 387,95 L 386,94 L 386,90 L 385,89 L 385,86 L 384,85 L 384,82 L 383,81 L 383,78 L 382,77 L 382,75 L 381,74 L 381,72 L 380,71 L 380,70 L 379,69 L 379,67 L 378,66 L 378,65 L 377,64 L 377,63 L 376,62 L 376,61 L 375,60 L 375,59 L 373,57 L 373,56 L 368,51 L 368,50 L 367,50 L 362,45 L 361,45 L 359,43 L 358,43 L 357,42 L 356,42 L 355,41 L 354,41 L 353,40 L 351,40 L 350,39 L 349,39 L 348,38 L 346,38 L 345,37 L 343,37 L 342,36 L 339,36 L 338,35 L 335,35 L 334,34 L 332,34 L 331,33 L 329,33 L 328,32 L 326,32 L 325,31 L 323,31 L 322,30 L 321,30 L 320,29 L 319,29 L 318,28 L 308,28 L 307,29 L 306,29 L 305,30 L 304,30 L 302,32 L 301,32 L 294,39 L 294,40 L 291,43 L 291,44 L 290,45 L 290,46 L 288,48 L 287,48 L 286,47 L 286,45 L 285,44 L 285,43 L 284,42 L 284,41 L 282,39 L 282,38 L 278,34 L 277,34 L 275,32 L 273,32 L 272,31 L 271,31 L 270,30 L 266,30 L 265,29 L 251,29 L 250,30 L 244,30 L 243,31 L 239,31 L 238,32 L 234,32 L 233,33 L 228,33 L 227,32 L 222,32 L 221,31 L 219,31 L 218,30 L 216,30 L 215,29 L 214,29 L 213,28 L 211,28 L 210,27 L 209,27 L 208,26 L 207,26 L 206,25 L 204,25 L 203,24 L 201,24 L 200,23 L 198,23 L 197,22 L 195,22 L 194,21 L 191,21 L 190,20 L 185,20 L 184,19 Z" fill="none" stroke="black" /><path d="M 99,219 L 100,218 L 117,218 L 118,219 L 122,219 L 123,220 L 125,220 L 126,221 L 129,221 L 130,222 L 131,222 L 132,223 L 134,223 L 135,224 L 136,224 L 137,225 L 138,225 L 139,226 L 141,226 L 142,227 L 143,227 L 145,229 L 146,229 L 147,230 L 148,230 L 149,231 L 150,231 L 151,232 L 152,232 L 154,234 L 155,234 L 156,235 L 157,235 L 159,237 L 160,237 L 162,239 L 163,239 L 165,241 L 166,241 L 168,243 L 169,243 L 172,246 L 173,246 L 176,249 L 177,249 L 180,252 L 180,253 L 179,254 L 179,256 L 177,258 L 175,258 L 174,259 L 173,259 L 172,260 L 171,260 L 170,261 L 168,261 L 167,262 L 166,262 L 165,263 L 163,263 L 162,264 L 161,264 L 160,265 L 158,265 L 157,266 L 141,266 L 140,265 L 137,265 L 136,264 L 133,264 L 132,263 L 130,263 L 129,262 L 128,262 L 127,261 L 125,261 L 124,260 L 123,260 L 122,259 L 121,259 L 120,258 L 119,258 L 118,257 L 117,257 L 115,255 L 114,255 L 110,251 L 109,251 L 106,248 L 106,247 L 103,244 L 103,243 L 101,241 L 101,240 L 100,239 L 100,238 L 99,237 L 99,236 L 98,235 L 98,233 L 97,232 L 97,228 L 96,227 L 96,220 L 97,219 Z" fill="none" stroke="black" /><path d="M 316,216 L 317,215 L 322,215 L 323,216 L 327,216 L 328,217 L 329,217 L 331,219 L 331,224 L 330,225 L 330,229 L 329,230 L 329,232 L 328,233 L 328,234 L 327,235 L 327,236 L 326,237 L 326,238 L 325,239 L 325,240 L 323,242 L 323,243 L 314,252 L 313,252 L 311,254 L 310,254 L 309,255 L 308,255 L 306,257 L 305,257 L 304,258 L 302,258 L 301,259 L 300,259 L 299,260 L 297,260 L 296,261 L 294,261 L 293,262 L 291,262 L 290,263 L 286,263 L 285,264 L 270,264 L 269,263 L 267,263 L 266,262 L 265,262 L 264,261 L 262,261 L 261,260 L 260,260 L 259,259 L 257,259 L 256,258 L 255,258 L 254,257 L 253,257 L 252,256 L 250,256 L 248,254 L 248,253 L 247,252 L 247,250 L 251,246 L 252,246 L 255,243 L 256,243 L 259,240 L 260,240 L 262,238 L 263,238 L 265,236 L 266,236 L 267,235 L 268,235 L 270,233 L 271,233 L 273,231 L 274,231 L 275,230 L 276,230 L 277,229 L 278,229 L 280,227 L 281,227 L 282,226 L 283,226 L 284,225 L 285,225 L 286,224 L 287,224 L 288,223 L 289,223 L 290,222 L 292,222 L 293,221 L 294,221 L 295,220 L 297,220 L 298,219 L 300,219 L 301,218 L 304,218 L 305,217 L 309,217 L 310,216 Z" fill="none" stroke="black" /><path d="M 212,179 L 213,178 L 215,178 L 216,179 L 218,179 L 219,180 L 220,180 L 222,182 L 223,182 L 225,184 L 225,185 L 227,187 L 227,188 L 228,189 L 228,190 L 229,191 L 229,193 L 230,194 L 230,197 L 231,198 L 231,209 L 230,210 L 230,213 L 229,214 L 229,216 L 228,217 L 228,218 L 227,219 L 227,220 L 220,227 L 219,227 L 218,228 L 210,228 L 209,227 L 208,227 L 201,220 L 201,219 L 200,218 L 200,217 L 199,216 L 199,215 L 198,214 L 198,211 L 197,210 L 197,197 L 198,196 L 198,193 L 199,192 L 199,191 L 200,190 L 200,189 L 201,188 L 201,187 L 203,185 L 203,184 L 206,181 L 207,181 L 208,180 L 209,180 L 210,179 Z" fill="none" stroke="black" /><path d="M 112,30 L 113,29 L 118,29 L 119,30 L 121,30 L 122,31 L 123,31 L 125,33 L 126,33 L 134,41 L 134,42 L 137,45 L 137,46 L 138,47 L 138,48 L 140,50 L 140,51 L 141,52 L 141,53 L 142,54 L 142,55 L 143,56 L 143,57 L 144,58 L 144,59 L 145,60 L 145,61 L 146,62 L 146,63 L 147,64 L 147,65 L 148,66 L 148,68 L 149,69 L 149,70 L 150,71 L 150,73 L 151,74 L 151,75 L 152,76 L 152,78 L 153,79 L 153,81 L 154,82 L 154,84 L 155,85 L 155,87 L 156,88 L 156,91 L 157,92 L 157,95 L 158,96 L 158,99 L 159,100 L 159,102 L 160,103 L 160,106 L 161,107 L 161,110 L 162,111 L 162,114 L 163,115 L 163,118 L 164,119 L 164,122 L 165,123 L 165,126 L 166,127 L 166,130 L 167,131 L 167,134 L 168,135 L 168,137 L 169,138 L 169,141 L 170,142 L 170,145 L 171,146 L 171,149 L 172,150 L 172,153 L 173,154 L 173,157 L 174,158 L 174,160 L 175,161 L 175,164 L 176,165 L 176,168 L 177,169 L 177,172 L 178,173 L 178,176 L 179,177 L 179,179 L 180,180 L 180,183 L 181,184 L 181,187 L 182,188 L 182,190 L 183,191 L 183,194 L 184,195 L 184,198 L 185,199 L 185,202 L 186,203 L 186,215 L 187,216 L 187,219 L 188,220 L 188,222 L 189,223 L 189,225 L 190,226 L 190,227 L 191,228 L 191,229 L 192,230 L 192,231 L 193,232 L 193,233 L 194,234 L 190,238 L 189,238 L 185,242 L 185,243 L 184,244 L 183,244 L 182,243 L 182,241 L 181,240 L 181,239 L 180,238 L 180,237 L 179,236 L 179,235 L 176,232 L 176,231 L 168,223 L 167,223 L 164,220 L 163,220 L 160,217 L 159,217 L 157,215 L 156,215 L 154,213 L 153,213 L 152,212 L 151,212 L 149,210 L 148,210 L 147,209 L 146,209 L 144,207 L 143,207 L 142,206 L 141,206 L 139,204 L 138,204 L 137,203 L 136,203 L 134,201 L 133,201 L 132,200 L 131,200 L 129,198 L 128,198 L 127,197 L 126,197 L 124,195 L 123,195 L 122,194 L 121,194 L 120,193 L 119,193 L 118,192 L 117,192 L 116,191 L 115,191 L 114,190 L 113,190 L 112,189 L 110,189 L 109,188 L 108,188 L 107,187 L 105,187 L 104,186 L 102,186 L 101,185 L 99,185 L 98,184 L 97,184 L 96,183 L 94,183 L 93,182 L 92,182 L 91,181 L 90,181 L 89,180 L 88,180 L 86,178 L 85,178 L 84,177 L 83,177 L 81,175 L 80,175 L 78,173 L 77,173 L 75,171 L 74,171 L 71,168 L 70,168 L 68,166 L 67,166 L 58,157 L 58,156 L 56,154 L 56,153 L 54,151 L 54,150 L 53,149 L 53,148 L 52,147 L 52,146 L 51,145 L 51,144 L 50,143 L 50,141 L 49,140 L 49,139 L 48,138 L 48,136 L 47,135 L 47,133 L 46,132 L 46,129 L 45,128 L 45,126 L 44,125 L 44,121 L 43,120 L 43,116 L 42,115 L 42,108 L 41,107 L 41,98 L 42,97 L 42,92 L 43,91 L 43,88 L 44,87 L 44,84 L 45,83 L 45,80 L 46,79 L 46,77 L 47,76 L 47,74 L 48,73 L 48,72 L 49,71 L 49,69 L 50,68 L 50,67 L 51,66 L 51,65 L 52,64 L 52,63 L 54,61 L 54,60 L 56,58 L 56,57 L 66,47 L 67,47 L 69,45 L 70,45 L 71,44 L 72,44 L 73,43 L 74,43 L 75,42 L 76,42 L 77,41 L 79,41 L 80,40 L 81,40 L 82,39 L 85,39 L 86,38 L 88,38 L 89,37 L 92,37 L 93,36 L 95,36 L 96,35 L 99,35 L 100,34 L 102,34 L 103,33 L 104,33 L 105,32 L 106,32 L 107,31 L 109,31 L 110,30 Z" fill="none" stroke="black" /><path d="M 308,29 L 309,28 L 317,28 L 318,29 L 319,29 L 320,30 L 322,30 L 323,31 L 324,31 L 325,32 L 327,32 L 328,33 L 330,33 L 331,34 L 334,34 L 335,35 L 337,35 L 338,36 L 341,36 L 342,37 L 344,37 L 345,38 L 347,38 L 348,39 L 350,39 L 351,40 L 352,40 L 353,41 L 354,41 L 355,42 L 356,42 L 357,43 L 358,43 L 359,44 L 360,44 L 363,47 L 364,47 L 371,54 L 371,55 L 374,58 L 374,59 L 375,60 L 375,61 L 376,62 L 376,63 L 377,64 L 377,65 L 378,66 L 378,67 L 379,68 L 379,69 L 380,70 L 380,72 L 381,73 L 381,75 L 382,76 L 382,78 L 383,79 L 383,81 L 384,82 L 384,85 L 385,86 L 385,90 L 386,91 L 386,95 L 387,96 L 387,106 L 386,107 L 386,114 L 385,115 L 385,119 L 384,120 L 384,123 L 383,124 L 383,127 L 382,128 L 382,130 L 381,131 L 381,133 L 380,134 L 380,136 L 379,137 L 379,139 L 378,140 L 378,141 L 377,142 L 377,144 L 376,145 L 376,146 L 375,147 L 375,148 L 373,150 L 373,151 L 372,152 L 372,153 L 370,155 L 370,156 L 362,164 L 361,164 L 360,165 L 359,165 L 356,168 L 355,168 L 352,171 L 351,171 L 349,173 L 348,173 L 346,175 L 345,175 L 343,177 L 342,177 L 341,178 L 340,178 L 339,179 L 338,179 L 337,180 L 336,180 L 335,181 L 334,181 L 333,182 L 331,182 L 330,183 L 329,183 L 328,184 L 326,184 L 325,185 L 323,185 L 322,186 L 320,186 L 319,187 L 318,187 L 317,188 L 315,188 L 314,189 L 313,189 L 312,190 L 311,190 L 310,191 L 309,191 L 308,192 L 307,192 L 306,193 L 305,193 L 303,195 L 302,195 L 301,196 L 300,196 L 298,198 L 297,198 L 296,199 L 295,199 L 293,201 L 292,201 L 291,202 L 290,202 L 288,204 L 287,204 L 286,205 L 285,205 L 283,207 L 282,207 L 281,208 L 280,208 L 278,210 L 277,210 L 276,211 L 275,211 L 273,213 L 272,213 L 270,215 L 269,215 L 267,217 L 266,217 L 263,220 L 262,220 L 251,231 L 251,232 L 249,234 L 249,235 L 248,236 L 248,237 L 247,238 L 247,239 L 246,240 L 246,242 L 245,243 L 241,239 L 241,237 L 240,238 L 237,235 L 236,235 L 235,234 L 235,232 L 238,229 L 238,228 L 239,227 L 239,226 L 240,225 L 240,222 L 241,221 L 241,206 L 242,205 L 242,202 L 243,201 L 243,199 L 244,198 L 244,195 L 245,194 L 245,191 L 246,190 L 246,187 L 247,186 L 247,183 L 248,182 L 248,180 L 249,179 L 249,176 L 250,175 L 250,172 L 251,171 L 251,168 L 252,167 L 252,164 L 253,163 L 253,160 L 254,159 L 254,156 L 255,155 L 255,152 L 256,151 L 256,148 L 257,147 L 257,145 L 258,144 L 258,141 L 259,140 L 259,137 L 260,136 L 260,133 L 261,132 L 261,129 L 262,128 L 262,125 L 263,124 L 263,122 L 264,121 L 264,118 L 265,117 L 265,114 L 266,113 L 266,110 L 267,109 L 267,107 L 268,106 L 268,103 L 269,102 L 269,99 L 270,98 L 270,96 L 271,95 L 271,92 L 272,91 L 272,88 L 273,87 L 273,85 L 274,84 L 274,81 L 275,80 L 275,78 L 276,77 L 276,76 L 277,75 L 277,73 L 278,72 L 278,70 L 279,69 L 279,68 L 280,67 L 280,65 L 281,64 L 281,63 L 282,62 L 282,61 L 283,60 L 283,58 L 284,57 L 284,56 L 285,55 L 285,54 L 286,53 L 286,52 L 288,50 L 288,49 L 289,48 L 289,47 L 291,45 L 291,44 L 293,42 L 293,41 L 303,31 L 304,31 L 306,29 Z" fill="none" stroke="black" /><path d="M 176,20 L 177,19 L 184,19 L 185,20 L 190,20 L 191,21 L 194,21 L 195,22 L 197,22 L 198,23 L 200,23 L 201,24 L 203,24 L 204,25 L 205,25 L 206,26 L 208,26 L 209,27 L 210,27 L 211,28 L 212,28 L 213,29 L 214,29 L 215,30 L 217,30 L 218,31 L 220,31 L 221,32 L 225,32 L 226,33 L 234,33 L 235,32 L 239,32 L 240,31 L 244,31 L 245,30 L 251,30 L 252,29 L 264,29 L 265,30 L 269,30 L 270,31 L 272,31 L 273,32 L 274,32 L 275,33 L 276,33 L 283,40 L 283,41 L 284,42 L 284,43 L 285,44 L 285,45 L 286,46 L 286,48 L 287,49 L 287,51 L 286,52 L 286,53 L 285,54 L 285,55 L 284,56 L 284,57 L 283,58 L 283,59 L 282,60 L 282,61 L 281,62 L 281,64 L 280,65 L 280,66 L 279,67 L 279,69 L 278,70 L 278,71 L 277,72 L 277,74 L 276,75 L 276,77 L 275,78 L 275,80 L 274,81 L 274,83 L 273,84 L 273,86 L 272,87 L 272,90 L 271,91 L 271,94 L 270,95 L 270,97 L 269,98 L 269,101 L 268,102 L 268,105 L 267,106 L 267,109 L 266,110 L 266,112 L 265,113 L 265,116 L 264,117 L 264,120 L 263,121 L 263,124 L 262,125 L 262,128 L 261,129 L 261,131 L 260,132 L 260,135 L 259,136 L 259,139 L 258,140 L 258,143 L 257,144 L 257,147 L 256,148 L 256,151 L 255,152 L 255,155 L 254,156 L 254,159 L 253,160 L 253,163 L 252,164 L 252,167 L 251,168 L 251,170 L 250,171 L 250,174 L 249,175 L 249,178 L 248,179 L 248,182 L 247,183 L 247,185 L 246,186 L 246,189 L 245,190 L 245,193 L 244,194 L 244,197 L 243,198 L 243,201 L 242,202 L 242,204 L 241,205 L 239,203 L 239,201 L 238,200 L 238,198 L 237,197 L 237,195 L 236,194 L 236,192 L 235,191 L 235,190 L 234,189 L 234,188 L 233,187 L 233,186 L 232,185 L 232,182 L 229,179 L 229,178 L 227,176 L 227,175 L 226,174 L 226,173 L 225,172 L 225,168 L 224,167 L 224,163 L 223,162 L 223,158 L 222,157 L 222,153 L 221,152 L 221,148 L 220,147 L 220,142 L 219,141 L 219,134 L 218,133 L 218,125 L 217,124 L 217,107 L 216,106 L 216,91 L 217,90 L 217,81 L 221,77 L 222,77 L 223,76 L 225,76 L 226,75 L 234,75 L 235,74 L 234,73 L 234,72 L 233,71 L 232,71 L 230,69 L 229,69 L 228,68 L 224,68 L 223,69 L 222,69 L 221,70 L 220,70 L 218,72 L 217,72 L 216,71 L 216,70 L 221,65 L 222,65 L 224,63 L 225,63 L 226,62 L 227,62 L 228,61 L 229,61 L 230,60 L 231,60 L 231,59 L 230,59 L 229,58 L 220,58 L 219,59 L 218,59 L 216,61 L 216,62 L 215,63 L 215,64 L 214,65 L 214,66 L 213,67 L 212,66 L 212,65 L 210,63 L 210,62 L 207,59 L 206,59 L 203,56 L 202,56 L 201,55 L 200,55 L 199,56 L 197,56 L 196,57 L 197,57 L 198,58 L 199,58 L 204,63 L 204,64 L 205,65 L 205,66 L 206,67 L 206,69 L 205,70 L 204,69 L 201,69 L 200,70 L 199,70 L 191,78 L 191,79 L 194,79 L 195,78 L 196,78 L 197,77 L 198,77 L 199,76 L 201,76 L 204,79 L 204,80 L 205,81 L 205,82 L 206,83 L 206,98 L 207,99 L 207,129 L 208,130 L 208,138 L 207,139 L 207,150 L 206,151 L 206,157 L 205,158 L 205,162 L 204,163 L 204,166 L 203,167 L 203,169 L 202,170 L 202,172 L 201,173 L 201,175 L 199,177 L 199,178 L 197,180 L 197,181 L 196,182 L 196,183 L 194,185 L 194,186 L 193,187 L 193,188 L 192,189 L 192,190 L 191,191 L 191,192 L 190,193 L 190,194 L 189,195 L 189,196 L 188,197 L 188,198 L 187,199 L 187,200 L 186,201 L 185,200 L 185,198 L 184,197 L 184,194 L 183,193 L 183,191 L 182,190 L 182,187 L 181,186 L 181,183 L 180,182 L 180,179 L 179,178 L 179,176 L 178,175 L 178,172 L 177,171 L 177,168 L 176,167 L 176,164 L 175,163 L 175,161 L 174,160 L 174,157 L 173,156 L 173,153 L 172,152 L 172,149 L 171,148 L 171,146 L 170,145 L 170,142 L 169,141 L 169,138 L 168,137 L 168,134 L 167,133 L 167,130 L 166,129 L 166,126 L 165,125 L 165,122 L 164,121 L 164,119 L 163,118 L 163,115 L 162,114 L 162,111 L 161,110 L 161,107 L 160,106 L 160,103 L 159,102 L 159,99 L 158,98 L 158,95 L 157,94 L 157,91 L 156,90 L 156,88 L 155,87 L 155,84 L 154,83 L 154,81 L 153,80 L 153,78 L 152,77 L 152,76 L 151,75 L 151,73 L 150,72 L 150,70 L 149,69 L 149,68 L 148,67 L 148,66 L 147,65 L 147,63 L 146,62 L 146,61 L 145,60 L 145,59 L 144,58 L 144,57 L 143,56 L 143,55 L 142,54 L 142,53 L 141,52 L 141,51 L 140,50 L 140,49 L 141,48 L 141,47 L 143,45 L 143,44 L 145,42 L 145,41 L 149,37 L 149,36 L 158,27 L 159,27 L 161,25 L 162,25 L 164,23 L 165,23 L 166,22 L 167,22 L 168,21 L 170,21 L 171,20 Z" fill="none" stroke="black" /></g><g id="group_3"><path d="M 212,179 L 213,178 L 215,178 L 216,179 L 218,179 L 219,180 L 220,180 L 222,182 L 223,182 L 225,184 L 225,185 L 227,187 L 227,188 L 228,189 L 228,190 L 229,191 L 229,193 L 230,194 L 230,197 L 231,198 L 231,209 L 230,210 L 230,213 L 229,214 L 229,216 L 228,217 L 228,218 L 227,219 L 227,220 L 220,227 L 219,227 L 218,228 L 210,228 L 209,227 L 208,227 L 201,220 L 201,219 L 200,218 L 200,217 L 199,216 L 199,215 L 198,214 L 198,211 L 197,210 L 197,197 L 198,196 L 198,193 L 199,192 L 199,191 L 200,190 L 200,189 L 201,188 L 201,187 L 203,185 L 203,184 L 206,181 L 207,181 L 208,180 L 209,180 L 210,179 Z" fill="none" stroke="black" /><path d="M 210,214 L 208,216 L 208,218 L 209,219 L 211,219 L 212,218 L 212,215 L 211,214 Z" fill="none" stroke="black" /><path d="M 218,213 L 217,214 L 217,217 L 218,218 L 219,218 L 220,217 L 220,214 L 219,213 Z" fill="none" stroke="black" /><path d="M 209,205 L 209,206 L 208,207 L 208,208 L 209,209 L 209,210 L 211,210 L 212,209 L 212,206 L 211,205 Z" fill="none" stroke="black" /><path d="M 217,204 L 216,205 L 216,206 L 215,207 L 216,208 L 216,209 L 218,209 L 219,208 L 219,205 L 218,205 Z" fill="none" stroke="black" /><path d="M 216,196 L 214,198 L 214,199 L 215,200 L 215,201 L 217,201 L 218,200 L 218,197 L 217,196 Z" fill="none" stroke="black" /><path d="M 209,196 L 207,198 L 207,200 L 209,202 L 211,200 L 211,198 Z" fill="none" stroke="black" /><path d="M 216,187 L 214,189 L 214,190 L 215,191 L 215,192 L 217,192 L 218,191 L 218,188 L 217,187 Z" fill="none" stroke="black" /><path d="M 208,186 L 206,188 L 206,190 L 208,192 L 210,190 L 210,188 Z" fill="none" stroke="black" /></g><g id="group_12"><path d="M 112,30 L 113,29 L 118,29 L 119,30 L 121,30 L 122,31 L 123,31 L 125,33 L 126,33 L 134,41 L 134,42 L 137,45 L 137,46 L 138,47 L 138,48 L 140,50 L 140,51 L 141,52 L 141,53 L 142,54 L 142,55 L 143,56 L 143,57 L 144,58 L 144,59 L 145,60 L 145,61 L 146,62 L 146,63 L 147,64 L 147,65 L 148,66 L 148,68 L 149,69 L 149,70 L 150,71 L 150,73 L 151,74 L 151,75 L 152,76 L 152,78 L 153,79 L 153,81 L 154,82 L 154,84 L 155,85 L 155,87 L 156,88 L 156,91 L 157,92 L 157,95 L 158,96 L 158,99 L 159,100 L 159,102 L 160,103 L 160,106 L 161,107 L 161,110 L 162,111 L 162,114 L 163,115 L 163,118 L 164,119 L 164,122 L 165,123 L 165,126 L 166,127 L 166,130 L 167,131 L 167,134 L 168,135 L 168,137 L 169,138 L 169,141 L 170,142 L 170,145 L 171,146 L 171,149 L 172,150 L 172,153 L 173,154 L 173,157 L 174,158 L 174,160 L 175,161 L 175,164 L 176,165 L 176,168 L 177,169 L 177,172 L 178,173 L 178,176 L 179,177 L 179,179 L 180,180 L 180,183 L 181,184 L 181,187 L 182,188 L 182,190 L 183,191 L 183,194 L 184,195 L 184,198 L 185,199 L 185,202 L 186,203 L 186,215 L 187,216 L 187,219 L 188,220 L 188,222 L 189,223 L 189,225 L 190,226 L 190,227 L 191,228 L 191,229 L 192,230 L 192,231 L 193,232 L 193,233 L 194,234 L 190,238 L 189,238 L 185,242 L 185,243 L 184,244 L 183,244 L 182,243 L 182,241 L 181,240 L 181,239 L 180,238 L 180,237 L 179,236 L 179,235 L 176,232 L 176,231 L 168,223 L 167,223 L 164,220 L 163,220 L 160,217 L 159,217 L 157,215 L 156,215 L 154,213 L 153,213 L 152,212 L 151,212 L 149,210 L 148,210 L 147,209 L 146,209 L 144,207 L 143,207 L 142,206 L 141,206 L 139,204 L 138,204 L 137,203 L 136,203 L 134,201 L 133,201 L 132,200 L 131,200 L 129,198 L 128,198 L 127,197 L 126,197 L 124,195 L 123,195 L 122,194 L 121,194 L 120,193 L 119,193 L 118,192 L 117,192 L 116,191 L 115,191 L 114,190 L 113,190 L 112,189 L 110,189 L 109,188 L 108,188 L 107,187 L 105,187 L 104,186 L 102,186 L 101,185 L 99,185 L 98,184 L 97,184 L 96,183 L 94,183 L 93,182 L 92,182 L 91,181 L 90,181 L 89,180 L 88,180 L 86,178 L 85,178 L 84,177 L 83,177 L 81,175 L 80,175 L 78,173 L 77,173 L 75,171 L 74,171 L 71,168 L 70,168 L 68,166 L 67,166 L 58,157 L 58,156 L 56,154 L 56,153 L 54,151 L 54,150 L 53,149 L 53,148 L 52,147 L 52,146 L 51,145 L 51,144 L 50,143 L 50,141 L 49,140 L 49,139 L 48,138 L 48,136 L 47,135 L 47,133 L 46,132 L 46,129 L 45,128 L 45,126 L 44,125 L 44,121 L 43,120 L 43,116 L 42,115 L 42,108 L 41,107 L 41,98 L 42,97 L 42,92 L 43,91 L 43,88 L 44,87 L 44,84 L 45,83 L 45,80 L 46,79 L 46,77 L 47,76 L 47,74 L 48,73 L 48,72 L 49,71 L 49,69 L 50,68 L 50,67 L 51,66 L 51,65 L 52,64 L 52,63 L 54,61 L 54,60 L 56,58 L 56,57 L 66,47 L 67,47 L 69,45 L 70,45 L 71,44 L 72,44 L 73,43 L 74,43 L 75,42 L 76,42 L 77,41 L 79,41 L 80,40 L 81,40 L 82,39 L 85,39 L 86,38 L 88,38 L 89,37 L 92,37 L 93,36 L 95,36 L 96,35 L 99,35 L 100,34 L 102,34 L 103,33 L 104,33 L 105,32 L 106,32 L 107,31 L 109,31 L 110,30 Z" fill="none" stroke="black" /><path d="M 186,234 Z" fill="none" stroke="black" /><path d="M 185,232 Z" fill="none" stroke="black" /><path d="M 183,230 Z" fill="none" stroke="black" /><path d="M 182,228 Z" fill="none" stroke="black" /><path d="M 180,227 Z" fill="none" stroke="black" /><path d="M 179,225 Z" fill="none" stroke="black" /><path d="M 177,223 Z" fill="none" stroke="black" /><path d="M 176,221 Z" fill="none" stroke="black" /><path d="M 174,219 Z" fill="none" stroke="black" /><path d="M 173,217 Z" fill="none" stroke="black" /><path d="M 158,200 Z" fill="none" stroke="black" /><path d="M 156,198 Z" fill="none" stroke="black" /><path d="M 155,196 Z" fill="none" stroke="black" /><path d="M 152,193 L 153,194 Z" fill="none" stroke="black" /><path d="M 150,191 Z" fill="none" stroke="black" /><path d="M 149,189 Z" fill="none" stroke="black" /><path d="M 147,187 Z" fill="none" stroke="black" /><path d="M 146,185 Z" fill="none" stroke="black" /><path d="M 144,183 Z" fill="none" stroke="black" /><path d="M 126,156 Z" fill="none" stroke="black" /><path d="M 125,154 Z" fill="none" stroke="black" /><path d="M 122,143 Z" fill="none" stroke="black" /><path d="M 122,141 Z" fill="none" stroke="black" /><path d="M 122,136 Z" fill="none" stroke="black" /><path d="M 122,134 Z" fill="none" stroke="black" /><path d="M 122,131 Z" fill="none" stroke="black" /><path d="M 122,129 Z" fill="none" stroke="black" /><path d="M 122,127 Z" fill="none" stroke="black" /><path d="M 122,124 Z" fill="none" stroke="black" /><path d="M 122,122 Z" fill="none" stroke="black" /><path d="M 122,108 Z" fill="none" stroke="black" /><path d="M 122,106 Z" fill="none" stroke="black" /><path d="M 121,101 Z" fill="none" stroke="black" /><path d="M 104,81 L 103,82 L 103,85 L 104,86 L 104,87 L 105,88 L 105,89 L 110,94 L 111,94 L 113,96 L 114,96 L 115,97 L 117,97 L 118,98 L 119,98 L 120,99 L 122,97 L 122,93 L 121,92 L 121,91 L 120,90 L 120,89 L 116,85 L 115,85 L 113,83 L 112,83 L 111,82 L 110,82 L 109,81 Z" fill="none" stroke="black" /></g><g id="group_47"><path d="M 308,29 L 309,28 L 317,28 L 318,29 L 319,29 L 320,30 L 322,30 L 323,31 L 324,31 L 325,32 L 327,32 L 328,33 L 330,33 L 331,34 L 334,34 L 335,35 L 337,35 L 338,36 L 341,36 L 342,37 L 344,37 L 345,38 L 347,38 L 348,39 L 350,39 L 351,40 L 352,40 L 353,41 L 354,41 L 355,42 L 356,42 L 357,43 L 358,43 L 359,44 L 360,44 L 363,47 L 364,47 L 371,54 L 371,55 L 374,58 L 374,59 L 375,60 L 375,61 L 376,62 L 376,63 L 377,64 L 377,65 L 378,66 L 378,67 L 379,68 L 379,69 L 380,70 L 380,72 L 381,73 L 381,75 L 382,76 L 382,78 L 383,79 L 383,81 L 384,82 L 384,85 L 385,86 L 385,90 L 386,91 L 386,95 L 387,96 L 387,106 L 386,107 L 386,114 L 385,115 L 385,119 L 384,120 L 384,123 L 383,124 L 383,127 L 382,128 L 382,130 L 381,131 L 381,133 L 380,134 L 380,136 L 379,137 L 379,139 L 378,140 L 378,141 L 377,142 L 377,144 L 376,145 L 376,146 L 375,147 L 375,148 L 373,150 L 373,151 L 372,152 L 372,153 L 370,155 L 370,156 L 362,164 L 361,164 L 360,165 L 359,165 L 356,168 L 355,168 L 352,171 L 351,171 L 349,173 L 348,173 L 346,175 L 345,175 L 343,177 L 342,177 L 341,178 L 340,178 L 339,179 L 338,179 L 337,180 L 336,180 L 335,181 L 334,181 L 333,182 L 331,182 L 330,183 L 329,183 L 328,184 L 326,184 L 325,185 L 323,185 L 322,186 L 320,186 L 319,187 L 318,187 L 317,188 L 315,188 L 314,189 L 313,189 L 312,190 L 311,190 L 310,191 L 309,191 L 308,192 L 307,192 L 306,193 L 305,193 L 303,195 L 302,195 L 301,196 L 300,196 L 298,198 L 297,198 L 296,199 L 295,199 L 293,201 L 292,201 L 291,202 L 290,202 L 288,204 L 287,204 L 286,205 L 285,205 L 283,207 L 282,207 L 281,208 L 280,208 L 278,210 L 277,210 L 276,211 L 275,211 L 273,213 L 272,213 L 270,215 L 269,215 L 267,217 L 266,217 L 263,220 L 262,220 L 251,231 L 251,232 L 249,234 L 249,235 L 248,236 L 248,237 L 247,238 L 247,239 L 246,240 L 246,242 L 245,243 L 241,239 L 241,237 L 240,238 L 237,235 L 236,235 L 235,234 L 235,232 L 238,229 L 238,228 L 239,227 L 239,226 L 240,225 L 240,222 L 241,221 L 241,206 L 242,205 L 242,202 L 243,201 L 243,199 L 244,198 L 244,195 L 245,194 L 245,191 L 246,190 L 246,187 L 247,186 L 247,183 L 248,182 L 248,180 L 249,179 L 249,176 L 250,175 L 250,172 L 251,171 L 251,168 L 252,167 L 252,164 L 253,163 L 253,160 L 254,159 L 254,156 L 255,155 L 255,152 L 256,151 L 256,148 L 257,147 L 257,145 L 258,144 L 258,141 L 259,140 L 259,137 L 260,136 L 260,133 L 261,132 L 261,129 L 262,128 L 262,125 L 263,124 L 263,122 L 264,121 L 264,118 L 265,117 L 265,114 L 266,113 L 266,110 L 267,109 L 267,107 L 268,106 L 268,103 L 269,102 L 269,99 L 270,98 L 270,96 L 271,95 L 271,92 L 272,91 L 272,88 L 273,87 L 273,85 L 274,84 L 274,81 L 275,80 L 275,78 L 276,77 L 276,76 L 277,75 L 277,73 L 278,72 L 278,70 L 279,69 L 279,68 L 280,67 L 280,65 L 281,64 L 281,63 L 282,62 L 282,61 L 283,60 L 283,58 L 284,57 L 284,56 L 285,55 L 285,54 L 286,53 L 286,52 L 288,50 L 288,49 L 289,48 L 289,47 L 291,45 L 291,44 L 293,42 L 293,41 L 303,31 L 304,31 L 306,29 Z" fill="none" stroke="black" /><path d="M 244,233 Z" fill="none" stroke="black" /><path d="M 250,226 Z" fill="none" stroke="black" /><path d="M 251,224 Z" fill="none" stroke="black" /><path d="M 253,222 Z" fill="none" stroke="black" /><path d="M 254,220 Z" fill="none" stroke="black" /><path d="M 260,213 Z" fill="none" stroke="black" /><path d="M 266,206 Z" fill="none" stroke="black" /><path d="M 269,203 Z" fill="none" stroke="black" /><path d="M 271,201 Z" fill="none" stroke="black" /><path d="M 272,199 Z" fill="none" stroke="black" /><path d="M 274,197 Z" fill="none" stroke="black" /><path d="M 277,194 Z" fill="none" stroke="black" /><path d="M 278,192 Z" fill="none" stroke="black" /><path d="M 280,190 Z" fill="none" stroke="black" /><path d="M 281,188 Z" fill="none" stroke="black" /><path d="M 297,168 Z" fill="none" stroke="black" /><path d="M 298,166 Z" fill="none" stroke="black" /><path d="M 299,164 Z" fill="none" stroke="black" /><path d="M 300,162 Z" fill="none" stroke="black" /><path d="M 302,160 Z" fill="none" stroke="black" /><path d="M 303,158 Z" fill="none" stroke="black" /><path d="M 304,155 Z" fill="none" stroke="black" /><path d="M 305,153 Z" fill="none" stroke="black" /><path d="M 306,151 Z" fill="none" stroke="black" /><path d="M 308,133 Z" fill="none" stroke="black" /><path d="M 308,128 Z" fill="none" stroke="black" /><path d="M 308,126 Z" fill="none" stroke="black" /><path d="M 308,121 Z" fill="none" stroke="black" /><path d="M 309,100 Z" fill="none" stroke="black" /><path d="M 323,81 L 322,82 L 321,82 L 320,83 L 319,83 L 317,85 L 316,85 L 312,89 L 312,90 L 311,91 L 311,92 L 310,93 L 310,98 L 314,98 L 315,97 L 317,97 L 318,96 L 319,96 L 321,94 L 322,94 L 327,89 L 327,88 L 328,87 L 328,86 L 329,85 L 329,82 L 328,81 Z" fill="none" stroke="black" /></g><g id="group_78"><path d="M 176,20 L 177,19 L 184,19 L 185,20 L 190,20 L 191,21 L 194,21 L 195,22 L 197,22 L 198,23 L 200,23 L 201,24 L 203,24 L 204,25 L 205,25 L 206,26 L 208,26 L 209,27 L 210,27 L 211,28 L 212,28 L 213,29 L 214,29 L 215,30 L 217,30 L 218,31 L 220,31 L 221,32 L 225,32 L 226,33 L 234,33 L 235,32 L 239,32 L 240,31 L 244,31 L 245,30 L 251,30 L 252,29 L 264,29 L 265,30 L 269,30 L 270,31 L 272,31 L 273,32 L 274,32 L 275,33 L 276,33 L 283,40 L 283,41 L 284,42 L 284,43 L 285,44 L 285,45 L 286,46 L 286,48 L 287,49 L 287,51 L 286,52 L 286,53 L 285,54 L 285,55 L 284,56 L 284,57 L 283,58 L 283,59 L 282,60 L 282,61 L 281,62 L 281,64 L 280,65 L 280,66 L 279,67 L 279,69 L 278,70 L 278,71 L 277,72 L 277,74 L 276,75 L 276,77 L 275,78 L 275,80 L 274,81 L 274,83 L 273,84 L 273,86 L 272,87 L 272,90 L 271,91 L 271,94 L 270,95 L 270,97 L 269,98 L 269,101 L 268,102 L 268,105 L 267,106 L 267,109 L 266,110 L 266,112 L 265,113 L 265,116 L 264,117 L 264,120 L 263,121 L 263,124 L 262,125 L 262,128 L 261,129 L 261,131 L 260,132 L 260,135 L 259,136 L 259,139 L 258,140 L 258,143 L 257,144 L 257,147 L 256,148 L 256,151 L 255,152 L 255,155 L 254,156 L 254,159 L 253,160 L 253,163 L 252,164 L 252,167 L 251,168 L 251,170 L 250,171 L 250,174 L 249,175 L 249,178 L 248,179 L 248,182 L 247,183 L 247,185 L 246,186 L 246,189 L 245,190 L 245,193 L 244,194 L 244,197 L 243,198 L 243,201 L 242,202 L 242,204 L 241,205 L 239,203 L 239,201 L 238,200 L 238,198 L 237,197 L 237,195 L 236,194 L 236,192 L 235,191 L 235,190 L 234,189 L 234,188 L 233,187 L 233,186 L 232,185 L 232,182 L 229,179 L 229,178 L 227,176 L 227,175 L 226,174 L 226,173 L 225,172 L 225,168 L 224,167 L 224,163 L 223,162 L 223,158 L 222,157 L 222,153 L 221,152 L 221,148 L 220,147 L 220,142 L 219,141 L 219,134 L 218,133 L 218,125 L 217,124 L 217,107 L 216,106 L 216,91 L 217,90 L 217,81 L 221,77 L 222,77 L 223,76 L 225,76 L 226,75 L 234,75 L 235,74 L 234,73 L 234,72 L 233,71 L 232,71 L 230,69 L 229,69 L 228,68 L 224,68 L 223,69 L 222,69 L 221,70 L 220,70 L 218,72 L 217,72 L 216,71 L 216,70 L 221,65 L 222,65 L 224,63 L 225,63 L 226,62 L 227,62 L 228,61 L 229,61 L 230,60 L 231,60 L 231,59 L 230,59 L 229,58 L 220,58 L 219,59 L 218,59 L 216,61 L 216,62 L 215,63 L 215,64 L 214,65 L 214,66 L 213,67 L 212,66 L 212,65 L 210,63 L 210,62 L 207,59 L 206,59 L 203,56 L 202,56 L 201,55 L 200,55 L 199,56 L 197,56 L 196,57 L 197,57 L 198,58 L 199,58 L 204,63 L 204,64 L 205,65 L 205,66 L 206,67 L 206,69 L 205,70 L 204,69 L 201,69 L 200,70 L 199,70 L 191,78 L 191,79 L 194,79 L 195,78 L 196,78 L 197,77 L 198,77 L 199,76 L 201,76 L 204,79 L 204,80 L 205,81 L 205,82 L 206,83 L 206,98 L 207,99 L 207,129 L 208,130 L 208,138 L 207,139 L 207,150 L 206,151 L 206,157 L 205,158 L 205,162 L 204,163 L 204,166 L 203,167 L 203,169 L 202,170 L 202,172 L 201,173 L 201,175 L 199,177 L 199,178 L 197,180 L 197,181 L 196,182 L 196,183 L 194,185 L 194,186 L 193,187 L 193,188 L 192,189 L 192,190 L 191,191 L 191,192 L 190,193 L 190,194 L 189,195 L 189,196 L 188,197 L 188,198 L 187,199 L 187,200 L 186,201 L 185,200 L 185,198 L 184,197 L 184,194 L 183,193 L 183,191 L 182,190 L 182,187 L 181,186 L 181,183 L 180,182 L 180,179 L 179,178 L 179,176 L 178,175 L 178,172 L 177,171 L 177,168 L 176,167 L 176,164 L 175,163 L 175,161 L 174,160 L 174,157 L 173,156 L 173,153 L 172,152 L 172,149 L 171,148 L 171,146 L 170,145 L 170,142 L 169,141 L 169,138 L 168,137 L 168,134 L 167,133 L 167,130 L 166,129 L 166,126 L 165,125 L 165,122 L 164,121 L 164,119 L 163,118 L 163,115 L 162,114 L 162,111 L 161,110 L 161,107 L 160,106 L 160,103 L 159,102 L 159,99 L 158,98 L 158,95 L 157,94 L 157,91 L 156,90 L 156,88 L 155,87 L 155,84 L 154,83 L 154,81 L 153,80 L 153,78 L 152,77 L 152,76 L 151,75 L 151,73 L 150,72 L 150,70 L 149,69 L 149,68 L 148,67 L 148,66 L 147,65 L 147,63 L 146,62 L 146,61 L 145,60 L 145,59 L 144,58 L 144,57 L 143,56 L 143,55 L 142,54 L 142,53 L 141,52 L 141,51 L 140,50 L 140,49 L 141,48 L 141,47 L 143,45 L 143,44 L 145,42 L 145,41 L 149,37 L 149,36 L 158,27 L 159,27 L 161,25 L 162,25 L 164,23 L 165,23 L 166,22 L 167,22 L 168,21 L 170,21 L 171,20 Z" fill="none" stroke="black" /><path d="M 231,171 Z" fill="none" stroke="black" /><path d="M 231,166 Z" fill="none" stroke="black" /><path d="M 231,164 Z" fill="none" stroke="black" /><path d="M 201,163 Z" fill="none" stroke="black" /><path d="M 231,159 Z" fill="none" stroke="black" /><path d="M 231,157 Z" fill="none" stroke="black" /><path d="M 200,156 Z" fill="none" stroke="black" /><path d="M 231,152 Z" fill="none" stroke="black" /><path d="M 233,134 Z" fill="none" stroke="black" /><path d="M 196,133 Z" fill="none" stroke="black" /><path d="M 233,131 Z" fill="none" stroke="black" /><path d="M 234,129 Z" fill="none" stroke="black" /><path d="M 194,126 Z" fill="none" stroke="black" /><path d="M 235,124 Z" fill="none" stroke="black" /><path d="M 236,122 Z" fill="none" stroke="black" /><path d="M 237,120 Z" fill="none" stroke="black" /><path d="M 238,118 Z" fill="none" stroke="black" /><path d="M 239,116 Z" fill="none" stroke="black" /><path d="M 240,114 Z" fill="none" stroke="black" /><path d="M 241,112 Z" fill="none" stroke="black" /><path d="M 244,108 Z" fill="none" stroke="black" /><path d="M 245,106 Z" fill="none" stroke="black" /><path d="M 246,104 Z" fill="none" stroke="black" /><path d="M 183,103 Z" fill="none" stroke="black" /><path d="M 247,102 Z" fill="none" stroke="black" /><path d="M 182,101 Z" fill="none" stroke="black" /><path d="M 249,100 Z" fill="none" stroke="black" /><path d="M 180,99 L 181,99 Z" fill="none" stroke="black" /><path d="M 250,98 Z" fill="none" stroke="black" /><path d="M 179,97 L 180,97 Z" fill="none" stroke="black" /><path d="M 251,96 Z" fill="none" stroke="black" /><path d="M 178,95 Z" fill="none" stroke="black" /><path d="M 177,93 Z" fill="none" stroke="black" /><path d="M 176,91 Z" fill="none" stroke="black" /><path d="M 266,60 L 261,65 L 261,66 L 260,67 L 260,68 L 259,69 L 259,72 L 258,73 L 258,81 L 259,82 L 259,83 L 262,83 L 267,78 L 267,77 L 268,76 L 268,75 L 269,74 L 269,72 L 270,71 L 270,62 L 268,60 Z" fill="none" stroke="black" /><path d="M 164,60 L 163,61 L 163,62 L 162,63 L 162,68 L 163,69 L 163,72 L 164,73 L 164,75 L 165,76 L 165,77 L 167,79 L 167,80 L 169,82 L 170,82 L 171,83 L 173,83 L 173,82 L 174,81 L 174,80 L 175,79 L 175,75 L 174,74 L 174,71 L 173,70 L 173,68 L 172,67 L 172,66 L 170,64 L 170,63 L 168,61 L 167,61 L 166,60 Z" fill="none" stroke="black" /></g></svg>